<svg width="1572" height="220" viewBox="0 0 1572 220" fill="none" xmlns="http://www.w3.org/2000/svg">
<path d="M8.9407e-08 215V4.99999H96C115.2 4.99999 131.7 8.09999 145.5 14.3C159.5 20.5 170.3 29.5 177.9 41.3C185.5 52.9 189.3 66.7 189.3 82.7C189.3 98.5 185.5 112.2 177.9 123.8C170.3 135.2 159.5 144 145.5 150.2C131.7 156.2 115.2 159.2 96 159.2H33L59.4 134.3V215H8.9407e-08ZM129.9 215L77.7 138.5H141L193.5 215H129.9ZM59.4 140.6L33 113.3H92.4C104.8 113.3 114 110.6 120 105.2C126.2 99.8 129.3 92.3 129.3 82.7C129.3 72.9 126.2 65.3 120 59.9C114 54.5 104.8 51.8 92.4 51.8H33L59.4 24.5V140.6ZM273.97 215L205.87 4.99999H267.07L324.37 186.8H293.47L353.77 4.99999H408.37L465.37 186.8H435.67L494.77 4.99999H551.47L483.37 215H419.77L371.17 60.5H388.27L337.57 215H273.97ZM572.754 215V4.99999H621.654L708.654 147.8H682.854L767.454 4.99999H816.354L816.954 215H762.354L761.754 88.1H771.054L707.754 194.3H681.354L616.254 88.1H627.654V215H572.754ZM932.784 219.2C915.584 219.2 898.984 217.1 882.984 212.9C867.184 208.5 854.284 202.9 844.284 196.1L863.784 152.3C873.184 158.3 883.984 163.3 896.184 167.3C908.584 171.1 920.884 173 933.084 173C941.284 173 947.884 172.3 952.884 170.9C957.884 169.3 961.484 167.3 963.684 164.9C966.084 162.3 967.284 159.3 967.284 155.9C967.284 151.1 965.084 147.3 960.684 144.5C956.284 141.7 950.584 139.4 943.584 137.6C936.584 135.8 928.784 134 920.184 132.2C911.784 130.4 903.284 128.1 894.684 125.3C886.284 122.5 878.584 118.9 871.584 114.5C864.584 109.9 858.884 104 854.484 96.8C850.084 89.4 847.884 80.1 847.884 68.9C847.884 56.3 851.284 44.9 858.084 34.7C865.084 24.5 875.484 16.3 889.284 10.1C903.084 3.89999 920.284 0.799986 940.884 0.799986C954.684 0.799986 968.184 2.39999 981.384 5.6C994.784 8.59999 1006.68 13.1 1017.08 19.1L998.784 63.2C988.784 57.8 978.884 53.8 969.084 51.2C959.284 48.4 949.784 47 940.584 47C932.384 47 925.784 47.9 920.784 49.7C915.784 51.3 912.184 53.5 909.984 56.3C907.784 59.1 906.684 62.3 906.684 65.9C906.684 70.5 908.784 74.2 912.984 77C917.384 79.6 923.084 81.8 930.084 83.6C937.284 85.2 945.084 86.9 953.484 88.7C962.084 90.5 970.584 92.8 978.984 95.6C987.584 98.2 995.384 101.8 1002.38 106.4C1009.38 110.8 1014.98 116.7 1019.18 124.1C1023.58 131.3 1025.78 140.4 1025.78 151.4C1025.78 163.6 1022.28 174.9 1015.28 185.3C1008.48 195.5 998.184 203.7 984.384 209.9C970.784 216.1 953.584 219.2 932.784 219.2ZM1280.93 4.99999H1340.33V215H1280.93V4.99999ZM1199.93 215H1140.53V4.99999H1199.93V215ZM1285.13 133.1H1195.73V83.9H1285.13V133.1ZM1382.23 215V4.99999H1478.23C1497.43 4.99999 1513.93 8.09999 1527.73 14.3C1541.73 20.5 1552.53 29.5 1560.13 41.3C1567.73 52.9 1571.53 66.7 1571.53 82.7C1571.53 98.5 1567.73 112.2 1560.13 123.8C1552.53 135.4 1541.73 144.4 1527.73 150.8C1513.93 157 1497.43 160.1 1478.23 160.1H1415.23L1441.63 134.3V215H1382.23ZM1441.63 140.6L1415.23 113.3H1474.63C1487.03 113.3 1496.23 110.6 1502.23 105.2C1508.43 99.8 1511.53 92.3 1511.53 82.7C1511.53 72.9 1508.43 65.3 1502.23 59.9C1496.23 54.5 1487.03 51.8 1474.63 51.8H1415.23L1441.63 24.5V140.6Z" fill="url(#paint0_linear_666_2)"/>
<defs>
<linearGradient id="paint0_linear_666_2" x1="-3" y1="4" x2="1583" y2="215" gradientUnits="userSpaceOnUse">
<stop stop-color="#1C3468"/>
<stop offset="1" stop-color="#E02525"/>
</linearGradient>
</defs>
</svg>
